<svg width="32" height="32" viewBox="0 0 32 32" fill="none" xmlns="http://www.w3.org/2000/svg">
<path fill-rule="evenodd" clip-rule="evenodd" d="M20.3319 8.46846C20.6318 8.7685 20.8003 9.1754 20.8003 9.59966C20.8003 10.0239 20.6318 10.4308 20.3319 10.7309L15.0631 15.9997L20.3319 21.2685C20.4847 21.4161 20.6066 21.5926 20.6904 21.7878C20.7743 21.983 20.8184 22.193 20.8203 22.4054C20.8221 22.6179 20.7816 22.8286 20.7012 23.0252C20.6207 23.2218 20.5019 23.4005 20.3517 23.5507C20.2015 23.7009 20.0228 23.8197 19.8262 23.9002C19.6295 23.9806 19.4189 24.0211 19.2064 24.0193C18.994 24.0174 18.784 23.9733 18.5888 23.8894C18.3936 23.8056 18.217 23.6837 18.0695 23.5309L11.6695 17.1309C11.3695 16.8308 11.201 16.4239 11.201 15.9997C11.201 15.5754 11.3695 15.1685 11.6695 14.8685L18.0695 8.46846C18.3695 8.1685 18.7764 8 19.2007 8C19.6249 8 20.0318 8.1685 20.3319 8.46846Z" fill="black" style="fill:black;fill-opacity:1;"/>
</svg>
