<svg
      width="93"
      height="94"
      viewBox="0 0 93 94"
      fill="none"
      xmlns="http://www.w3.org/2000/svg"
    >
      <g filter="url(#filter0_d_1039_10199)">
        <circle
          cx="46.5"
          cy="43.3799"
          r="42.5"
          fill="#FF9228"
          style="fill:#FF9228;fill:color(display-p3 1.0000 0.5725 0.1569);fill-opacity:1;"
        />
        <path
          fill-rule="evenodd"
          clip-rule="evenodd"
          d="M47.6669 24.1512C37.4639 24.1512 29.1927 32.4224 29.1927 42.6254C29.1927 45.501 29.8486 48.2187 31.0173 50.6414C31.2138 51.0487 31.2377 51.518 31.0837 51.9432L27.7367 61.1807C27.4156 62.0671 28.2667 62.9293 29.1573 62.6196L38.6299 59.3248C39.0421 59.1814 39.4939 59.2041 39.8896 59.388C42.2514 60.4858 44.8851 61.0995 47.6669 61.0995C57.8699 61.0995 66.141 52.8284 66.141 42.6254C66.141 32.4224 57.8699 24.1512 47.6669 24.1512ZM25.8338 42.6254C25.8338 30.5673 35.6088 20.7923 47.6669 20.7923C59.725 20.7923 69.5 30.5673 69.5 42.6254C69.5 54.6834 59.725 64.4584 47.6669 64.4584C44.6312 64.4584 41.7365 63.8379 39.1057 62.7156L30.2607 65.7921C26.6988 67.031 23.294 63.5821 24.5787 60.0365L27.6903 51.4482C26.4964 48.7484 25.8338 45.7622 25.8338 42.6254Z"
          fill="white"
          style="fill:white;fill-opacity:1;"
        />
        <path
          d="M39.1338 44.0383C37.8223 43.5529 37.8223 41.6979 39.1338 41.2125C42.4326 39.9919 45.0336 37.3909 46.2542 34.0921C46.7396 32.7805 48.5946 32.7805 49.08 34.0921C50.3006 37.3909 52.9016 39.9919 56.2004 41.2125C57.512 41.6979 57.512 43.5529 56.2004 44.0383C52.9016 45.2589 50.3006 47.8598 49.08 51.1587C48.5946 52.4702 46.7396 52.4702 46.2542 51.1587C45.0336 47.8598 42.4326 45.2589 39.1338 44.0383Z"
          fill="white"
          style="fill:white;fill-opacity:1;"
        />
      </g>
      <defs>
        <filter
          id="filter0_d_1039_10199"
          x="0"
          y="0.879883"
          width="93"
          height="93"
          filterUnits="userSpaceOnUse"
          color-interpolation-filters="sRGB"
        >
          <feFlood
            flood-opacity="0"
            result="BackgroundImageFix"
          />
          <feColorMatrix
            in="SourceAlpha"
            type="matrix"
            values="0 0 0 0 0 0 0 0 0 0 0 0 0 0 0 0 0 0 127 0"
            result="hardAlpha"
          />
          <feOffset dy="4" />
          <feGaussianBlur stdDeviation="2" />
          <feComposite
            in2="hardAlpha"
            operator="out"
          />
          <feColorMatrix
            type="matrix"
            values="0 0 0 0 0 0 0 0 0 0 0 0 0 0 0 0 0 0 0.25 0"
          />
          <feBlend
            mode="normal"
            in2="BackgroundImageFix"
            result="effect1_dropShadow_1039_10199"
          />
          <feBlend
            mode="normal"
            in="SourceGraphic"
            in2="effect1_dropShadow_1039_10199"
            result="shape"
          />
        </filter>
      </defs>
    </svg>