<svg width="12" height="14" viewBox="0 0 12 14" fill="none" xmlns="http://www.w3.org/2000/svg">
<path d="M4 10.9999C3.63333 10.9999 3.31944 10.8693 3.05833 10.6082C2.79722 10.3471 2.66667 10.0332 2.66667 9.66654V1.66659C2.66667 1.29992 2.79722 0.986032 3.05833 0.724922C3.31944 0.463812 3.63333 0.333252 4 0.333252H10C10.3667 0.333252 10.6806 0.463812 10.9417 0.724922C11.2028 0.986032 11.3333 1.29992 11.3333 1.66659V9.66654C11.3333 10.0332 11.2028 10.3471 10.9417 10.6082C10.6806 10.8693 10.3667 10.9999 10 10.9999H4ZM4 9.66654H10V1.66659H4V9.66654ZM1.33333 13.6665C0.96667 13.6665 0.65278 13.536 0.39167 13.2749C0.13056 13.0138 0 12.6999 0 12.3332V2.99992H1.33333V12.3332H8.6667V13.6665H1.33333Z" fill="#404040" style="fill:#404040;fill:color(display-p3 0.2510 0.2510 0.2510);fill-opacity:1;"/>
</svg>
