<svg width="18" height="16" viewBox="0 0 18 16" fill="none" xmlns="http://www.w3.org/2000/svg">
<path d="M8.00002 16C7.71669 16 7.47919 15.9042 7.28752 15.7125C7.09585 15.5208 7.00002 15.2833 7.00002 15V9L1.20002 1.6C0.950019 1.26667 0.912519 0.916667 1.08752 0.55C1.26252 0.183333 1.56669 0 2.00002 0H16C16.4334 0 16.7375 0.183333 16.9125 0.55C17.0875 0.916667 17.05 1.26667 16.8 1.6L11 9V15C11 15.2833 10.9042 15.5208 10.7125 15.7125C10.5209 15.9042 10.2834 16 10 16H8.00002Z" fill="#1C1B1F" style="fill:#1C1B1F;fill:color(display-p3 0.1098 0.1059 0.1216);fill-opacity:1;"/>
</svg>
