<svg width="16" height="15" viewBox="0 0 16 15" fill="none" xmlns="http://www.w3.org/2000/svg">
<path d="M8.6938 6.28771L5.77311 3.36702L6.57505 2.58384L8.6938 4.70259L12.9501 0.465088L13.7332 1.24827L8.6938 6.28771ZM4.02655 11.933L9.46968 13.4733L13.9466 12.0858C13.9082 11.9157 13.8284 11.7852 13.7072 11.6943C13.5861 11.6034 13.4505 11.558 13.3005 11.558H9.62849C9.30061 11.558 9.02224 11.5455 8.79336 11.5205C8.56449 11.4955 8.32936 11.4407 8.08799 11.356L6.39486 10.7963L6.72786 9.6944L8.24661 10.2224C8.47361 10.2993 8.73568 10.3517 9.0328 10.3795C9.32993 10.4074 9.75249 10.4252 10.3005 10.433C10.3005 10.2473 10.2587 10.0872 10.1751 9.95259C10.0914 9.81796 9.9813 9.72709 9.84468 9.67996L5.49336 8.0819C5.47886 8.07715 5.46561 8.07359 5.45361 8.07121C5.44161 8.06871 5.42843 8.06746 5.41405 8.06746H4.02655V11.933ZM0.27655 14.1252V6.94265H5.40674C5.48461 6.94265 5.56374 6.95078 5.64411 6.96703C5.72436 6.9834 5.79955 7.00409 5.86968 7.02909L10.2399 8.63878C10.5803 8.76465 10.863 8.98746 11.088 9.30721C11.313 9.62696 11.4255 10.0022 11.4255 10.433H13.3005C13.839 10.433 14.2777 10.6068 14.6166 10.9544C14.9556 11.3019 15.1251 11.7531 15.1251 12.308V12.9136L9.50718 14.6588L4.02655 13.0955V14.1252H0.27655ZM1.40155 13.0002H2.90155V8.06746H1.40155V13.0002Z" fill="#FF9228" style="fill:#FF9228;fill:color(display-p3 1.0000 0.5725 0.1569);fill-opacity:1;"/>
</svg>
