<svg width="25" height="24" viewBox="0 0 25 24" fill="none" xmlns="http://www.w3.org/2000/svg">
<mask id="mask0_207_2368" style="mask-type:alpha" maskUnits="userSpaceOnUse" x="0" y="0" width="25" height="24">
<rect x="0.5" width="24" height="24" fill="#D9D9D9" style="fill:#D9D9D9;fill:color(display-p3 0.8510 0.8510 0.8510);fill-opacity:1;"/>
</mask>
<g mask="url(#mask0_207_2368)">
<path d="M2.29834 19.3078V17.0845C2.29834 16.5692 2.43134 16.1093 2.69734 15.7048C2.96334 15.3003 3.31859 14.9856 3.76309 14.7608C4.71342 14.2959 5.66901 13.9375 6.62984 13.6855C7.59084 13.4337 8.64692 13.3078 9.79809 13.3078C10.9494 13.3078 12.0055 13.4337 12.9663 13.6855C13.9273 13.9375 14.883 14.2959 15.8333 14.7608C16.2778 14.9856 16.6331 15.3003 16.8991 15.7048C17.1651 16.1093 17.2981 16.5692 17.2981 17.0845V19.3078H2.29834ZM19.2981 19.3078V16.9615C19.2981 16.3052 19.1374 15.6796 18.8161 15.0848C18.4946 14.4901 18.0386 13.9798 17.4481 13.554C18.1186 13.654 18.7552 13.8088 19.3578 14.0183C19.9603 14.2279 20.5353 14.4757 21.0828 14.7615C21.5995 15.0372 21.9985 15.3621 22.2798 15.7363C22.5612 16.1103 22.7018 16.5187 22.7018 16.9615V19.3078H19.2981ZM9.79809 11.6923C8.83559 11.6923 8.01167 11.3496 7.32634 10.6643C6.64101 9.97876 6.29834 9.15476 6.29834 8.19226C6.29834 7.22976 6.64101 6.40584 7.32634 5.72051C8.01167 5.03501 8.83559 4.69226 9.79809 4.69226C10.7606 4.69226 11.5846 5.03501 12.2701 5.72051C12.9554 6.40584 13.2981 7.22976 13.2981 8.19226C13.2981 9.15476 12.9554 9.97876 12.2701 10.6643C11.5846 11.3496 10.7606 11.6923 9.79809 11.6923ZM18.4326 8.19226C18.4326 9.15476 18.0899 9.97876 17.4046 10.6643C16.7193 11.3496 15.8953 11.6923 14.9328 11.6923C14.82 11.6923 14.6764 11.6794 14.5021 11.6538C14.3276 11.6281 14.184 11.5999 14.0713 11.5693C14.4657 11.0951 14.7688 10.5691 14.9806 9.99126C15.1923 9.41343 15.2981 8.81343 15.2981 8.19126C15.2981 7.56893 15.1901 6.97118 14.9741 6.39801C14.7581 5.82501 14.4572 5.29751 14.0713 4.81551C14.2148 4.76418 14.3584 4.73084 14.5021 4.71551C14.6456 4.70001 14.7892 4.69226 14.9328 4.69226C15.8953 4.69226 16.7193 5.03501 17.4046 5.72051C18.0899 6.40584 18.4326 7.22976 18.4326 8.19226ZM3.79809 17.8078H15.7981V17.0845C15.7981 16.8757 15.7458 16.6898 15.6413 16.527C15.537 16.3642 15.3713 16.2218 15.1443 16.1C14.3213 15.6757 13.4739 15.3542 12.6021 15.1355C11.7303 14.917 10.7956 14.8078 9.79809 14.8078C8.80076 14.8078 7.86617 14.917 6.99434 15.1355C6.12251 15.3542 5.27509 15.6757 4.45209 16.1C4.22509 16.2218 4.05934 16.3642 3.95484 16.527C3.85034 16.6898 3.79809 16.8757 3.79809 17.0845V17.8078ZM9.79809 10.1923C10.3481 10.1923 10.8189 9.99643 11.2106 9.60476C11.6023 9.21309 11.7981 8.74226 11.7981 8.19226C11.7981 7.64226 11.6023 7.17143 11.2106 6.77976C10.8189 6.38809 10.3481 6.19226 9.79809 6.19226C9.24809 6.19226 8.77726 6.38809 8.38559 6.77976C7.99392 7.17143 7.79809 7.64226 7.79809 8.19226C7.79809 8.74226 7.99392 9.21309 8.38559 9.60476C8.77726 9.99643 9.24809 10.1923 9.79809 10.1923Z" fill="#E63936" fill-opacity="0.5" style="fill:#E63936;fill:color(display-p3 0.9020 0.2235 0.2118);fill-opacity:0.5;"/>
</g>
</svg>
