<svg width="14" height="14" viewBox="0 0 14 14" fill="none" xmlns="http://www.w3.org/2000/svg">
<path d="M7 13.375C5.17987 13.375 3.66231 13.118 2.44731 12.604C1.23244 12.0901 0.625 11.4481 0.625 10.6778V3.25C0.625 2.526 1.24712 1.9075 2.49137 1.3945C3.73563 0.8815 5.2385 0.625 7 0.625C8.7615 0.625 10.2644 0.8815 11.5086 1.3945C12.7529 1.9075 13.375 2.526 13.375 3.25V10.6778C13.375 11.4481 12.7676 12.0901 11.5527 12.604C10.3377 13.118 8.82012 13.375 7 13.375ZM7 4.71831C8.09325 4.71831 9.194 4.56375 10.3022 4.25463C11.4104 3.9455 12.0524 3.61206 12.2284 3.25431C12.0572 2.88706 11.4218 2.5445 10.3223 2.22662C9.22281 1.90887 8.11538 1.75 7 1.75C5.8865 1.75 4.78288 1.90456 3.68913 2.21369C2.59538 2.52281 1.95138 2.86006 1.75713 3.22544C1.94663 3.60044 2.58581 3.943 3.67469 4.25313C4.76369 4.56325 5.87213 4.71831 7 4.71831ZM7 8.47113C7.52025 8.47113 8.0265 8.44613 8.51875 8.39612C9.011 8.34612 9.48144 8.27306 9.93006 8.17694C10.3786 8.08081 10.7985 7.96156 11.1899 7.81919C11.5813 7.67694 11.9346 7.51588 12.25 7.336V4.675C11.9346 4.85475 11.5813 5.01581 11.1899 5.15819C10.7985 5.30044 10.3786 5.41963 9.93006 5.51575C9.48144 5.612 9.011 5.68512 8.51875 5.73512C8.0265 5.78512 7.52025 5.81012 7 5.81012C6.47025 5.81012 5.95413 5.78388 5.45163 5.73138C4.94925 5.679 4.475 5.60475 4.02888 5.50863C3.58275 5.4125 3.16712 5.2945 2.782 5.15463C2.39687 5.01463 2.05288 4.85475 1.75 4.675V7.336C2.05288 7.51588 2.39687 7.67575 2.782 7.81563C3.16712 7.9555 3.58275 8.0735 4.02888 8.16963C4.475 8.26588 4.94925 8.34019 5.45163 8.39256C5.95413 8.44494 6.47025 8.47113 7 8.47113ZM7 12.25C7.60862 12.25 8.20625 12.2099 8.79288 12.1296C9.37938 12.0493 9.913 11.9396 10.3938 11.8007C10.8745 11.6617 11.28 11.5004 11.6103 11.3168C11.9406 11.1332 12.1539 10.9404 12.25 10.7384V8.461C11.9346 8.64088 11.5813 8.80194 11.1899 8.94419C10.7985 9.08656 10.3786 9.20581 9.93006 9.30194C9.48144 9.39806 9.011 9.47112 8.51875 9.52112C8.0265 9.57113 7.52025 9.59612 7 9.59612C6.47025 9.59612 5.95413 9.56994 5.45163 9.51756C4.94925 9.46519 4.475 9.39088 4.02888 9.29463C3.58275 9.1985 3.16712 9.0805 2.782 8.94063C2.39687 8.80075 2.05288 8.64088 1.75 8.461V10.75C1.84613 10.9567 2.05744 11.1488 2.38394 11.3262C2.71031 11.5036 3.11388 11.6617 3.59462 11.8007C4.0755 11.9396 4.61112 12.0493 5.2015 12.1296C5.79187 12.2099 6.39138 12.25 7 12.25Z" fill="#FF9228" style="fill:#FF9228;fill:color(display-p3 1.0000 0.5725 0.1569);fill-opacity:1;"/>
</svg>
