<svg width="22" height="16" viewBox="0 0 22 16" fill="none" xmlns="http://www.w3.org/2000/svg">
<path d="M0.798279 15.3078V13.0845C0.798279 12.5692 0.931279 12.1093 1.19728 11.7048C1.46328 11.3003 1.81853 10.9856 2.26303 10.7608C3.21336 10.2959 4.16895 9.93751 5.12978 9.68551C6.09078 9.43368 7.14686 9.30776 8.29803 9.30776C9.44936 9.30776 10.5054 9.43368 11.4663 9.68551C12.4273 9.93751 13.3829 10.2959 14.3333 10.7608C14.7778 10.9856 15.133 11.3003 15.399 11.7048C15.665 12.1093 15.798 12.5692 15.798 13.0845V15.3078H0.798279ZM17.798 15.3078V12.9615C17.798 12.3052 17.6374 11.6796 17.316 11.0848C16.9945 10.4901 16.5385 9.97985 15.948 9.55401C16.6185 9.65401 17.2551 9.80876 17.8578 10.0183C18.4603 10.2279 19.0353 10.4757 19.5828 10.7615C20.0994 11.0372 20.4984 11.3621 20.7798 11.7363C21.0611 12.1103 21.2018 12.5187 21.2018 12.9615V15.3078H17.798ZM8.29803 7.69226C7.33553 7.69226 6.51161 7.34959 5.82628 6.66426C5.14095 5.97876 4.79828 5.15476 4.79828 4.19226C4.79828 3.22976 5.14095 2.40584 5.82628 1.72051C6.51161 1.03501 7.33553 0.692261 8.29803 0.692261C9.26053 0.692261 10.0845 1.03501 10.77 1.72051C11.4554 2.40584 11.798 3.22976 11.798 4.19226C11.798 5.15476 11.4554 5.97876 10.77 6.66426C10.0845 7.34959 9.26053 7.69226 8.29803 7.69226ZM16.9325 4.19226C16.9325 5.15476 16.5899 5.97876 15.9045 6.66426C15.2192 7.34959 14.3953 7.69226 13.4328 7.69226C13.3199 7.69226 13.1764 7.67943 13.002 7.65376C12.8275 7.62809 12.6839 7.59993 12.5713 7.56926C12.9656 7.09509 13.2687 6.56909 13.4805 5.99126C13.6922 5.41343 13.798 4.81343 13.798 4.19126C13.798 3.56893 13.69 2.97118 13.474 2.39801C13.258 1.82501 12.9571 1.29751 12.5713 0.815511C12.7148 0.764177 12.8584 0.730844 13.002 0.715511C13.1455 0.700011 13.2891 0.692261 13.4328 0.692261C14.3953 0.692261 15.2192 1.03501 15.9045 1.72051C16.5899 2.40584 16.9325 3.22976 16.9325 4.19226ZM2.29803 13.8078H14.298V13.0845C14.298 12.8757 14.2458 12.6898 14.1413 12.527C14.0369 12.3642 13.8713 12.2218 13.6443 12.1C12.8213 11.6757 11.9739 11.3542 11.102 11.1355C10.2302 10.917 9.29553 10.8078 8.29803 10.8078C7.3007 10.8078 6.36611 10.917 5.49428 11.1355C4.62245 11.3542 3.77503 11.6757 2.95203 12.1C2.72503 12.2218 2.55928 12.3642 2.45478 12.527C2.35028 12.6898 2.29803 12.8757 2.29803 13.0845V13.8078ZM8.29803 6.19226C8.84803 6.19226 9.31886 5.99643 9.71053 5.60476C10.1022 5.21309 10.298 4.74226 10.298 4.19226C10.298 3.64226 10.1022 3.17143 9.71053 2.77976C9.31886 2.38809 8.84803 2.19226 8.29803 2.19226C7.74803 2.19226 7.2772 2.38809 6.88553 2.77976C6.49386 3.17143 6.29803 3.64226 6.29803 4.19226C6.29803 4.74226 6.49386 5.21309 6.88553 5.60476C7.2772 5.99643 7.74803 6.19226 8.29803 6.19226Z" fill="#E63936" fill-opacity="0.5" style="fill:#E63936;fill:color(display-p3 0.9020 0.2235 0.2118);fill-opacity:0.5;"/>
</svg>
