<svg width="25" height="24" viewBox="0 0 25 24" fill="none" xmlns="http://www.w3.org/2000/svg">
<path d="M21 19.5V21H6.125C4.95625 21 4 19.9875 4 18.75V3H5.41667V18.75C5.41667 19.1625 5.73542 19.5 6.125 19.5H21ZM16.0417 12.75H14.625V5.25H16.0417V3H17.4583V5.25H18.875V12.75H17.4583V15H16.0417V12.75ZM16.0417 11.25H17.4583V6.75H16.0417V11.25ZM9.66667 15H8.25V5.25H9.66667V3H11.0833V5.25H12.5V15H11.0833V17.25H9.66667V15ZM9.66667 13.5H11.0833V6.75H9.66667V13.5Z" fill="#E63936" fill-opacity="0.5" style="fill:#E63936;fill:color(display-p3 0.9020 0.2235 0.2118);fill-opacity:0.5;"/>
</svg>
