<svg width="21" height="20" viewBox="0 0 21 20" fill="none" xmlns="http://www.w3.org/2000/svg">
<path d="M11.925 8.05L8.03078 4.15575L9.10003 3.1115L11.925 5.9365L17.6 0.286499L18.6443 1.33075L11.925 8.05ZM5.70203 15.577L12.9595 17.6307L18.9288 15.7807C18.8776 15.5539 18.7712 15.3799 18.6095 15.2588C18.448 15.1376 18.2673 15.077 18.0673 15.077H13.1713C12.7341 15.077 12.3629 15.0603 12.0578 15.027C11.7526 14.9937 11.4391 14.9206 11.1173 14.8077L8.85978 14.0615L9.30378 12.5922L11.3288 13.2963C11.6314 13.3988 11.9809 13.4686 12.377 13.5058C12.7732 13.5429 13.3366 13.5667 14.0673 13.577C14.0673 13.3295 14.0115 13.116 13.9 12.9365C13.7885 12.757 13.6417 12.6358 13.4595 12.573L7.65778 10.4422C7.63844 10.4359 7.62078 10.4312 7.60478 10.428C7.58878 10.4247 7.57119 10.423 7.55203 10.423H5.70203V15.577ZM0.702026 18.5V8.92325H7.54228C7.64611 8.92325 7.75161 8.93408 7.85878 8.95575C7.96578 8.97758 8.06603 9.00517 8.15953 9.0385L13.9865 11.1847C14.4404 11.3526 14.8173 11.6497 15.1173 12.076C15.4173 12.5023 15.5673 13.0027 15.5673 13.577H18.0673C18.7853 13.577 19.3702 13.8088 19.822 14.2723C20.274 14.7356 20.5 15.3372 20.5 16.077V16.8845L13.0095 19.2115L5.70203 17.127V18.5H0.702026ZM2.20203 17H4.20203V10.423H2.20203V17Z" fill="#E63936" fill-opacity="0.5" style="fill:#E63936;fill:color(display-p3 0.9020 0.2235 0.2118);fill-opacity:0.5;"/>
</svg>
